# xmcd
#
# Track frame offsets:
#	183
#	22448
#	44488
#	68488
#	87500
#	108548
#	140998
#	167128
#	194103
#	223460
#	250423
#	272333
#	292555
#
# Disc length: 4043 seconds
#
# Revision: 4
# Processed by: cddbd v1.5.1PL2 Copyright (c) Steve Scherf et al.
# Submitted via: EasyCDDAExtractor 8.2.3.1
#
DISCID=d50fc90d
DTITLE=Various Artist - - Single
DYEAR=2002
DGENRE=Happy Hardcore
TTITLE0=M-D-Emm - Fly Free
TTITLE1=Noise Factory - Can U Feel The Rush
TTITLE2=DJ K.P. - Stoned
TTITLE3=Sonic Experience - Everybody Get Crazy
TTITLE4=Tek 9 and Manix - Just A Dream
TTITLE5=Dry and Roasted - It's Like A Dream
TTITLE6=Red Alert and Mike Slammer - Fuckin Hardcore
TTITLE7=Tight Control - Stormtrooper
TTITLE8=Chemical Vacation - Real Style
TTITLE9=A-Sides - Ruff It Up
TTITLE10=New Decade - No Worries
TTITLE11=Citadel Of Kaos - Searchin For Gold
TTITLE12=strictly underground - Info
EXTD=YEAR: 2002  ID3G:  17
EXTT0=
EXTT1=
EXTT2=
EXTT3=
EXTT4=
EXTT5=
EXTT6=
EXTT7=
EXTT8=
EXTT9=
EXTT10=
EXTT11=
EXTT12=
PLAYORDER=
